<svg width="457" height="76" viewBox="0 0 457 76" fill="none" xmlns="http://www.w3.org/2000/svg">
<path d="M0 20C0 8.95431 8.9543 0 20 0H437C448.046 0 457 8.95431 457 20V56C457 67.0457 448.046 76 437 76H20C8.95432 76 0 67.0457 0 56V20Z" fill="white"/>
<path d="M55.3261 50V24.8H76.5301V50H73.9021V26.384L74.5861 27.104H57.2701L57.9541 26.384V50H55.3261ZM92.5212 50.18C90.5532 50.18 88.8252 49.772 87.3372 48.956C85.8492 48.116 84.6852 46.976 83.8452 45.536C83.0052 44.072 82.5852 42.404 82.5852 40.532C82.5852 38.66 82.9812 37.004 83.7732 35.564C84.5892 34.124 85.6932 32.996 87.0852 32.18C88.5012 31.34 90.0852 30.92 91.8372 30.92C93.6132 30.92 95.1852 31.328 96.5532 32.144C97.9452 32.936 99.0372 34.064 99.8292 35.528C100.621 36.968 101.017 38.636 101.017 40.532C101.017 40.652 101.005 40.784 100.981 40.928C100.981 41.048 100.981 41.18 100.981 41.324H84.5292V39.416H99.6132L98.6052 40.172C98.6052 38.804 98.3052 37.592 97.7052 36.536C97.1292 35.456 96.3372 34.616 95.3292 34.016C94.3212 33.416 93.1572 33.116 91.8372 33.116C90.5412 33.116 89.3772 33.416 88.3452 34.016C87.3132 34.616 86.5092 35.456 85.9332 36.536C85.3572 37.616 85.0692 38.852 85.0692 40.244V40.64C85.0692 42.08 85.3812 43.352 86.0052 44.456C86.6532 45.536 87.5412 46.388 88.6692 47.012C89.8212 47.612 91.1292 47.912 92.5932 47.912C93.7452 47.912 94.8132 47.708 95.7972 47.3C96.8052 46.892 97.6692 46.268 98.3892 45.428L99.8292 47.084C98.9892 48.092 97.9332 48.86 96.6612 49.388C95.4132 49.916 94.0332 50.18 92.5212 50.18ZM116.431 50.18C114.799 50.18 113.323 49.808 112.003 49.064C110.683 48.296 109.627 47.204 108.835 45.788C108.067 44.348 107.683 42.596 107.683 40.532C107.683 38.468 108.067 36.728 108.835 35.312C109.603 33.872 110.647 32.78 111.967 32.036C113.287 31.292 114.775 30.92 116.431 30.92C118.231 30.92 119.839 31.328 121.255 32.144C122.695 32.936 123.823 34.064 124.639 35.528C125.455 36.968 125.863 38.636 125.863 40.532C125.863 42.452 125.455 44.132 124.639 45.572C123.823 47.012 122.695 48.14 121.255 48.956C119.839 49.772 118.231 50.18 116.431 50.18ZM106.675 56.984V31.1H109.123V36.788L108.871 40.568L109.231 44.384V56.984H106.675ZM116.251 47.912C117.595 47.912 118.795 47.612 119.851 47.012C120.907 46.388 121.747 45.524 122.371 44.42C122.995 43.292 123.307 41.996 123.307 40.532C123.307 39.068 122.995 37.784 122.371 36.68C121.747 35.576 120.907 34.712 119.851 34.088C118.795 33.464 117.595 33.152 116.251 33.152C114.907 33.152 113.695 33.464 112.615 34.088C111.559 34.712 110.719 35.576 110.095 36.68C109.495 37.784 109.195 39.068 109.195 40.532C109.195 41.996 109.495 43.292 110.095 44.42C110.719 45.524 111.559 46.388 112.615 47.012C113.695 47.612 114.907 47.912 116.251 47.912ZM139.455 50.18C137.487 50.18 135.759 49.772 134.271 48.956C132.783 48.116 131.619 46.976 130.779 45.536C129.939 44.072 129.519 42.404 129.519 40.532C129.519 38.66 129.915 37.004 130.707 35.564C131.523 34.124 132.627 32.996 134.019 32.18C135.435 31.34 137.019 30.92 138.771 30.92C140.547 30.92 142.119 31.328 143.487 32.144C144.879 32.936 145.971 34.064 146.763 35.528C147.555 36.968 147.951 38.636 147.951 40.532C147.951 40.652 147.939 40.784 147.915 40.928C147.915 41.048 147.915 41.18 147.915 41.324H131.463V39.416H146.547L145.539 40.172C145.539 38.804 145.239 37.592 144.639 36.536C144.063 35.456 143.271 34.616 142.263 34.016C141.255 33.416 140.091 33.116 138.771 33.116C137.475 33.116 136.311 33.416 135.279 34.016C134.247 34.616 133.443 35.456 132.867 36.536C132.291 37.616 132.003 38.852 132.003 40.244V40.64C132.003 42.08 132.315 43.352 132.939 44.456C133.587 45.536 134.475 46.388 135.603 47.012C136.755 47.612 138.063 47.912 139.527 47.912C140.679 47.912 141.747 47.708 142.731 47.3C143.739 46.892 144.603 46.268 145.323 45.428L146.763 47.084C145.923 48.092 144.867 48.86 143.595 49.388C142.347 49.916 140.967 50.18 139.455 50.18ZM153.609 50V31.1H156.165V46.112L168.801 31.1H171.069V50H168.513V34.952L155.913 50H153.609ZM162.177 28.364C160.593 28.364 159.309 27.968 158.325 27.176C157.365 26.36 156.861 25.196 156.813 23.684H158.649C158.673 24.644 159.009 25.4 159.657 25.952C160.305 26.504 161.145 26.78 162.177 26.78C163.209 26.78 164.049 26.504 164.697 25.952C165.369 25.4 165.717 24.644 165.741 23.684H167.577C167.553 25.196 167.049 26.36 166.065 27.176C165.081 27.968 163.785 28.364 162.177 28.364ZM181.994 50V32.648L182.642 33.332H174.83V31.1H191.714V33.332H183.902L184.55 32.648V50H181.994ZM195.409 50V31.1H197.965V46.112L210.601 31.1H212.869V50H210.313V34.952L197.713 50H195.409ZM243.476 50L235.7 40.64L237.824 39.38L246.5 50H243.476ZM229.616 50V31.1H232.172V50H229.616ZM231.38 41.576V39.38H237.464V41.576H231.38ZM238.04 40.82L235.664 40.46L243.188 31.1H245.96L238.04 40.82ZM259.956 50V31.1H273.348V33.332H261.864L262.512 32.684V50H259.956ZM286.798 50.18C285.166 50.18 283.69 49.808 282.37 49.064C281.05 48.296 279.994 47.204 279.202 45.788C278.434 44.348 278.05 42.596 278.05 40.532C278.05 38.468 278.434 36.728 279.202 35.312C279.97 33.872 281.014 32.78 282.334 32.036C283.654 31.292 285.142 30.92 286.798 30.92C288.598 30.92 290.206 31.328 291.622 32.144C293.062 32.936 294.19 34.064 295.006 35.528C295.822 36.968 296.23 38.636 296.23 40.532C296.23 42.452 295.822 44.132 295.006 45.572C294.19 47.012 293.062 48.14 291.622 48.956C290.206 49.772 288.598 50.18 286.798 50.18ZM277.042 56.984V31.1H279.49V36.788L279.238 40.568L279.598 44.384V56.984H277.042ZM286.618 47.912C287.962 47.912 289.162 47.612 290.218 47.012C291.274 46.388 292.114 45.524 292.738 44.42C293.362 43.292 293.674 41.996 293.674 40.532C293.674 39.068 293.362 37.784 292.738 36.68C292.114 35.576 291.274 34.712 290.218 34.088C289.162 33.464 287.962 33.152 286.618 33.152C285.274 33.152 284.062 33.464 282.982 34.088C281.926 34.712 281.086 35.576 280.462 36.68C279.862 37.784 279.562 39.068 279.562 40.532C279.562 41.996 279.862 43.292 280.462 44.42C281.086 45.524 281.926 46.388 282.982 47.012C284.062 47.612 285.274 47.912 286.618 47.912ZM313.352 50V45.824L313.244 45.14V38.156C313.244 36.548 312.788 35.312 311.876 34.448C310.988 33.584 309.656 33.152 307.88 33.152C306.656 33.152 305.492 33.356 304.388 33.764C303.284 34.172 302.348 34.712 301.58 35.384L300.428 33.476C301.388 32.66 302.54 32.036 303.884 31.604C305.228 31.148 306.644 30.92 308.132 30.92C310.58 30.92 312.464 31.532 313.784 32.756C315.128 33.956 315.8 35.792 315.8 38.264V50H313.352ZM306.836 50.18C305.42 50.18 304.184 49.952 303.128 49.496C302.096 49.016 301.304 48.368 300.752 47.552C300.2 46.712 299.924 45.752 299.924 44.672C299.924 43.688 300.152 42.8 300.608 42.008C301.088 41.192 301.856 40.544 302.912 40.064C303.992 39.56 305.432 39.308 307.232 39.308H313.748V41.216H307.304C305.48 41.216 304.208 41.54 303.488 42.188C302.792 42.836 302.444 43.64 302.444 44.6C302.444 45.68 302.864 46.544 303.704 47.192C304.544 47.84 305.72 48.164 307.232 48.164C308.672 48.164 309.908 47.84 310.94 47.192C311.996 46.52 312.764 45.56 313.244 44.312L313.82 46.076C313.34 47.324 312.5 48.32 311.3 49.064C310.124 49.808 308.636 50.18 306.836 50.18ZM333.225 50.216C333.225 50.216 333.177 50.216 333.081 50.216C332.985 50.216 332.889 50.216 332.793 50.216C332.721 50.216 332.661 50.216 332.613 50.216C328.869 50.192 325.953 49.34 323.865 47.66C321.777 45.98 320.733 43.592 320.733 40.496C320.733 37.448 321.777 35.096 323.865 33.44C325.977 31.76 328.941 30.908 332.757 30.884C332.781 30.884 332.829 30.884 332.901 30.884C332.997 30.884 333.081 30.884 333.153 30.884C333.225 30.884 333.273 30.884 333.297 30.884C337.137 30.908 340.125 31.76 342.261 33.44C344.397 35.096 345.465 37.448 345.465 40.496C345.465 43.616 344.385 46.016 342.225 47.696C340.089 49.376 337.089 50.216 333.225 50.216ZM333.189 47.984C335.325 47.984 337.113 47.696 338.553 47.12C339.993 46.52 341.085 45.668 341.829 44.564C342.573 43.46 342.945 42.104 342.945 40.496C342.945 38.936 342.573 37.616 341.829 36.536C341.085 35.432 339.993 34.592 338.553 34.016C337.113 33.44 335.325 33.152 333.189 33.152C333.165 33.152 333.093 33.152 332.973 33.152C332.877 33.152 332.817 33.152 332.793 33.152C330.705 33.152 328.953 33.452 327.537 34.052C326.121 34.628 325.053 35.456 324.333 36.536C323.613 37.616 323.253 38.936 323.253 40.496C323.253 42.08 323.613 43.424 324.333 44.528C325.077 45.632 326.157 46.484 327.573 47.084C328.989 47.66 330.729 47.96 332.793 47.984C332.841 47.984 332.913 47.984 333.009 47.984C333.105 47.984 333.165 47.984 333.189 47.984ZM331.821 56.984V23.288H334.305V56.984H331.821ZM350.87 50V31.1H353.426V46.112L366.062 31.1H368.33V50H365.774V34.952L353.174 50H350.87ZM389.516 50L381.74 40.64L383.864 39.38L392.54 50H389.516ZM375.656 50V31.1H378.212V50H375.656ZM377.42 41.576V39.38H383.504V41.576H377.42ZM384.08 40.82L381.704 40.46L389.228 31.1H392L384.08 40.82ZM395.808 57.164C394.92 57.164 394.068 57.02 393.252 56.732C392.46 56.444 391.776 56.012 391.2 55.436L392.388 53.528C392.868 53.984 393.384 54.332 393.936 54.572C394.512 54.836 395.148 54.968 395.844 54.968C396.684 54.968 397.404 54.728 398.004 54.248C398.628 53.792 399.216 52.976 399.768 51.8L400.992 49.028L401.28 48.632L409.056 31.1H411.576L402.108 52.268C401.58 53.492 400.992 54.464 400.344 55.184C399.72 55.904 399.036 56.408 398.292 56.696C397.548 57.008 396.72 57.164 395.808 57.164ZM400.848 50.54L392.136 31.1H394.8L402.504 48.452L400.848 50.54Z" fill="#5F90BD"/>
</svg>
